<svg xmlns="http://www.w3.org/2000/svg" viewBox="-13285 -16116 44.899 44.7">
  <g id="Group_70" data-name="Group 70" transform="translate(-13284.9 -16116)">
    <path id="Path_131" data-name="Path 131" d="M44.2,17.5a22.053,22.053,0,0,0-4.4-9.1,22.085,22.085,0,0,0-7.9-6.3A20.564,20.564,0,0,0,24.3,0H20.5a28.678,28.678,0,0,0-3.1.5A21.8,21.8,0,0,0,7.8,5.3a22.954,22.954,0,0,0-5.7,7.4A20.05,20.05,0,0,0,0,20.3a.367.367,0,0,1-.1.3v3.6c.1,1.1.3,2.1.5,3.2A22.177,22.177,0,0,0,3,34V18.1H13c2.5,0,4.3.8,5.3,2.2a5.384,5.384,0,0,1,.9,3.1,4.479,4.479,0,0,1-.9,3,7.382,7.382,0,0,1-1.6,1.2,5.46,5.46,0,0,1,2.4,1.8,5.571,5.571,0,0,1,.8,3,6.294,6.294,0,0,1-.9,3.3,7.312,7.312,0,0,1-1.4,1.6,5.973,5.973,0,0,1-2.3,1,13.575,13.575,0,0,1-2.9.3H6.9a22.388,22.388,0,0,0,6.8,4.5,21.27,21.27,0,0,0,6.6,1.6h3.9c1-.1,2-.3,3-.5a23.064,23.064,0,0,0,9.2-4.4A21.27,21.27,0,0,0,42.6,32a24.684,24.684,0,0,0,2.1-7.5.367.367,0,0,1,.1-.3V20.6A28.373,28.373,0,0,0,44.2,17.5ZM24.6,18.9h8.2v2H24.6v-2ZM36,31.7H25.3a3.461,3.461,0,0,0,3.6,3.7,2.817,2.817,0,0,0,2.1-.7,2.723,2.723,0,0,0,.8-1h3.9a4.488,4.488,0,0,1-1.4,2.6,7.233,7.233,0,0,1-5.5,2.1,8.021,8.021,0,0,1-5.2-1.8c-1.5-1.2-2.2-3.2-2.2-5.9a7.994,7.994,0,0,1,2-5.8,6.931,6.931,0,0,1,5.2-2,7.391,7.391,0,0,1,3.4.7,5.9,5.9,0,0,1,2.5,2.2,7.892,7.892,0,0,1,1.2,3A7.5,7.5,0,0,1,36,31.7Z"/>
    <path id="Path_132" data-name="Path 132" d="M28.7,26a3.374,3.374,0,0,0-2.3.8,4.068,4.068,0,0,0-1,2.3H32a3.293,3.293,0,0,0-1-2.3A3.374,3.374,0,0,0,28.7,26Z"/>
    <path id="Path_133" data-name="Path 133" d="M15.2,23.8a1.849,1.849,0,0,0-1.1-1.9,7.8,7.8,0,0,0-2.4-.3H7.9v4.5h4.3a4.767,4.767,0,0,0,2.2-.5A1.95,1.95,0,0,0,15.2,23.8Z"/>
    <path id="Path_134" data-name="Path 134" d="M7.9,35h4.3a4.136,4.136,0,0,0,2.1-.4A2.538,2.538,0,0,0,15.6,32a2.134,2.134,0,0,0-1.3-2.2,5.618,5.618,0,0,0-2-.3H7.9Z"/>
  </g>
</svg>
