<svg xmlns="http://www.w3.org/2000/svg" viewBox="-3818 223 22.775 20.31">
  <defs>
    <style>
      .cls-1 {
        fill: #fff;
      }
    </style>
  </defs>
  <g id="Group_101" data-name="Group 101" transform="translate(-3818 223)">
    <g id="Group_72" data-name="Group 72" transform="translate(0)">
      <path id="Path_135" data-name="Path 135" class="cls-1" d="M7.59,16.161a2.173,2.173,0,0,1-2.077-1.67L3.2,4a2.182,2.182,0,0,0-.664-.985L.4,1.581A.8.8,0,0,1,.182.467L.289.3A.8.8,0,0,1,1.4.082L3.543,1.516A3.8,3.8,0,0,1,4.956,3.593L7.269,14.084a.42.42,0,0,0,.343.278H19.044a.45.45,0,0,0,.364-.278l1.649-6.573a.791.791,0,0,1,.963-.578l.193.043a.791.791,0,0,1,.578.963l-1.67,6.573a2.217,2.217,0,0,1-2.1,1.649Z" transform="translate(-0.041 0.059)"/>
    </g>
    <path id="Path_136" data-name="Path 136" class="cls-1" d="M76.955,82.477A1.477,1.477,0,1,1,75.477,81,1.48,1.48,0,0,1,76.955,82.477Z" transform="translate(-58.165 -63.645)"/>
    <path id="Path_137" data-name="Path 137" class="cls-1" d="M37.455,82.477A1.477,1.477,0,1,1,35.977,81,1.48,1.48,0,0,1,37.455,82.477Z" transform="translate(-27.122 -63.645)"/>
  </g>
</svg>
