<svg xmlns="http://www.w3.org/2000/svg" viewBox="-13010.654 -23638 20.185 18">
  <g id="Group_73" data-name="Group 73" transform="translate(-13010.695 -23637.94)">
    <g id="Group_72" data-name="Group 72" transform="translate(0.041 -0.059)">
      <path id="Path_135" data-name="Path 135" d="M6.731,14.316a1.926,1.926,0,0,1-1.841-1.48l-2.049-9.3a1.934,1.934,0,0,0-.588-.873L.356,1.394A.7.7,0,0,1,.166.407L.261.256a.7.7,0,0,1,.987-.19l1.9,1.271A3.365,3.365,0,0,1,4.4,3.178l2.049,9.3a.372.372,0,0,0,.3.247H16.883a.4.4,0,0,0,.323-.247L18.667,6.65a.7.7,0,0,1,.854-.512l.171.038a.7.7,0,0,1,.512.854l-1.48,5.825a1.965,1.965,0,0,1-1.86,1.461Z" transform="translate(-0.041 0.059)"/>
    </g>
    <path id="Path_136" data-name="Path 136" d="M76.619,82.309A1.309,1.309,0,1,1,75.309,81,1.312,1.312,0,0,1,76.619,82.309Z" transform="translate(-59.925 -65.678)"/>
    <path id="Path_137" data-name="Path 137" d="M37.119,82.309A1.309,1.309,0,1,1,35.809,81,1.312,1.312,0,0,1,37.119,82.309Z" transform="translate(-27.92 -65.678)"/>
  </g>
</svg>
