<svg xmlns="http://www.w3.org/2000/svg" viewBox="-13366 -16116 44.7 45">
  <path id="Path_124" data-name="Path 124" d="M22.4,0A22.411,22.411,0,0,0,11,41.7V29.4c0-1.2,0-1.2-1.2-1.2H5.7V21.7H7.4c1.2,0,2.3-.1,3.5-.1,0-1.2,0-2.3.1-3.5.1-1.1.1-2.2.3-3.3a7.207,7.207,0,0,1,7.2-5.9c1.8,0,3.7.1,5.6.1v5.5c0,.2-.5.5-.7.5-1.1.1-2.1,0-3.2.1-1.7.1-2.4.9-2.4,2.6v3.4c0,.6.2.8.8.8h5.3c-.1,1.2-.3,2.3-.4,3.4-.1.8-.2,1.5-.3,2.3,0,.6-.3.8-.9.8H18.5c-.7,0-.8.2-.8.9V43h0v1.5a17.547,17.547,0,0,0,4.6.5,22.5,22.5,0,0,0,.1-45Z" transform="translate(-13366 -16116)"/>
</svg>
