<svg xmlns="http://www.w3.org/2000/svg" viewBox="-13204 -16116 44 44">
  <g id="Group_69" data-name="Group 69" transform="translate(-13204 -16116)">
    <path id="Path_128" data-name="Path 128" d="M7.2,32.2c.1,3.5,2.3,5.6,5.8,5.8,4.4.1,8.7.1,13.1,0,3.6-.1,5.7-2.3,5.8-5.8.1-4.4.1-8.7,0-13.1a5.566,5.566,0,0,0-5.8-5.8q-6.6-.3-13.2,0c-3.3.1-5.2,1.8-5.7,5a45.563,45.563,0,0,0-.1,7.4C7.2,27.8,7.1,30,7.2,32.2ZM27.8,15.5a1.923,1.923,0,0,1,1.9,2,1.967,1.967,0,0,1-1.9,1.9,1.951,1.951,0,1,1,0-3.9Zm-8.2,2.1a8,8,0,0,1-.1,16,8.089,8.089,0,0,1-8-8A8.244,8.244,0,0,1,19.6,17.6Z"/>
    <path id="Path_129" data-name="Path 129" d="M19.5,30.6a5,5,0,1,0-5-5A5.08,5.08,0,0,0,19.5,30.6Z"/>
    <path id="Path_130" data-name="Path 130" d="M22,0A21.937,21.937,0,0,0,0,22,21.678,21.678,0,0,0,5.1,36a6.944,6.944,0,0,1-.5-1.3,10.622,10.622,0,0,1-.4-1.9V18.4c.1-.4.2-.9.3-1.3a8.035,8.035,0,0,1,6-6.5,10.621,10.621,0,0,1,1.9-.4H26.8c.2,0,.4.1.6.1,3.5.6,6,2.4,7.1,5.9a10.081,10.081,0,0,1,.5,2.5V32.5c0,.3-.1.6-.1.8a8.4,8.4,0,0,1-6.7,7.4c-.5.1-1.1.2-1.6.3H12.8c-.3,0-.5-.1-.8-.1a11.627,11.627,0,0,1-1.8-.4A21.29,21.29,0,0,0,22,44,22,22,0,0,0,22,0Z"/>
  </g>
</svg>
