<svg xmlns="http://www.w3.org/2000/svg" xmlns:xlink="http://www.w3.org/1999/xlink" viewBox="-14652 -23699 149.751 131.781">
  <defs>
    <style>
      .cls-1 {
        clip-path: url(#clip-path);
      }

      .cls-2 {
        fill: #231f20;
      }
    </style>
    <clipPath id="clip-path">
      <rect id="Rectangle_4" data-name="Rectangle 4" width="149.751" height="131.781"/>
    </clipPath>
  </defs>
  <g id="Vector_Smart_Object_2_" transform="translate(-14652 -23699)">
    <g id="Group_19" data-name="Group 19">
      <g id="Group_2" data-name="Group 2" class="cls-1">
        <path id="Path_5" data-name="Path 5" class="cls-2" d="M25.869,0l-3,33.444h0L19.878,0H15.885l-2.5,33.444h-.5L10.394,0H6.9l3.993,37.438h4.493l2.5-33.444h0l2.5,33.444H24.87L28.864,0Z" transform="translate(27.543)"/>
      </g>
      <g id="Group_3" data-name="Group 3" class="cls-1">
        <path id="Path_6" data-name="Path 6" class="cls-2" d="M20.986,0V16.473H15.994V0H12.5V37.438h3.494V19.468h4.992v17.97H24.48V0Z" transform="translate(49.896)"/>
      </g>
      <g id="Group_4" data-name="Group 4" class="cls-1">
        <rect id="Rectangle_6" data-name="Rectangle 6" class="cls-2" width="3.494" height="37.438" transform="translate(82.363)"/>
      </g>
      <g id="Group_5" data-name="Group 5" class="cls-1">
        <path id="Path_7" data-name="Path 7" class="cls-2" d="M18.4,0V3h3.993V37.438h3.494V3h3.993V0Z" transform="translate(73.448)"/>
      </g>
      <g id="Group_6" data-name="Group 6" class="cls-1">
        <path id="Path_8" data-name="Path 8" class="cls-2" d="M21.9,0V37.438h9.484v-3h-5.99V19.468h5.491v-3H25.394V3h5.99V0Z" transform="translate(87.419)"/>
      </g>
      <g id="Group_18" data-name="Group 18" class="cls-1">
        <g id="Group_7" data-name="Group 7" class="cls-1">
          <path id="Path_9" data-name="Path 9" class="cls-2" d="M7.488,14.791c0-1.5-.5-2.5-2-2.5s-2,1-2,2.5v3.993a4.752,4.752,0,0,0,1,3.494l5.491,9.484a7.418,7.418,0,0,1,1,4.493v5.99c0,3.494-2,5.491-5.491,5.491S0,45.74,0,42.245V37.254H3.494v4.992c0,2,.5,3,2,3s2-1,2-3V37.254a7.215,7.215,0,0,0-1-3.494L1.5,24.774A11.378,11.378,0,0,1,0,19.283V14.791C0,11.3,2,9.3,5.491,9.3c3.993,0,5.491,2,5.491,4.992v4.992H7.488Z" transform="translate(0 37.123)"/>
        </g>
        <g id="Group_8" data-name="Group 8" class="cls-1">
          <path id="Path_10" data-name="Path 10" class="cls-2" d="M3.6,9.4H9.091c4.493,0,5.491,1.5,5.491,5.491v8.985c0,4.493-1.5,5.491-5.491,5.491h-2V46.339H3.6ZM8.592,26.871c1.5,0,2.5-.5,2.5-2.5V14.392c0-2-1-2.5-2.5-2.5h-1.5V26.871Z" transform="translate(14.37 37.522)"/>
        </g>
        <g id="Group_9" data-name="Group 9" class="cls-1">
          <path id="Path_11" data-name="Path 11" class="cls-2" d="M16.983,36.355h-5.99L9.5,46.838h-3L11.991,9.4h4.493l5.491,37.438H18.48Zm-3-24.459h0l-2.5,21.464h5.491Z" transform="translate(25.946 37.522)"/>
        </g>
        <g id="Group_10" data-name="Group 10" class="cls-1">
          <path id="Path_12" data-name="Path 12" class="cls-2" d="M18.188,14.392c0-1.5-.5-2.5-2-2.5s-2,1-2,2.5V41.846c0,1.5.5,2.5,2,2.5s2-1,2-2.5V36.854h3.494v5.491c0,3-2,4.992-5.491,4.992s-5.491-2-5.491-4.992V14.392c0-3,2-4.992,5.491-4.992s5.491,2,5.491,4.992v4.992H18.188Z" transform="translate(42.711 37.522)"/>
        </g>
        <g id="Group_11" data-name="Group 11" class="cls-1">
          <path id="Path_13" data-name="Path 13" class="cls-2" d="M14.1,9.4h8.985v3H17.594V25.873h5.491v3H17.594V43.843h5.491v3H14.1Z" transform="translate(56.283 37.522)"/>
        </g>
        <g id="Group_12" data-name="Group 12" class="cls-1">
          <path id="Path_14" data-name="Path 14" class="cls-2" d="M17.988,23.792c0-1.5-.5-2.5-2-2.5s-2,1-2,2.5v3.993a4.752,4.752,0,0,0,1,3.494l5.491,9.484a7.418,7.418,0,0,1,1,4.493v5.99c0,3.494-2,5.491-5.491,5.491-3.993,0-5.491-1.5-5.491-5.491V46.254h3.494v4.992c0,2,.5,3,2,3s2-1,2-3V46.254a7.215,7.215,0,0,0-1-3.494L12,33.775a8.433,8.433,0,0,1-1.5-4.992V24.291c0-3.494,2-5.491,5.491-5.491,3.993,0,5.491,2,5.491,4.992v4.992H17.988Z" transform="translate(41.913 75.044)"/>
        </g>
        <g id="Group_13" data-name="Group 13" class="cls-1">
          <path id="Path_15" data-name="Path 15" class="cls-2" d="M17.793,21.8H13.8v-3H24.782v3H21.288V56.238H17.793Z" transform="translate(55.086 75.044)"/>
        </g>
        <g id="Group_14" data-name="Group 14" class="cls-1">
          <path id="Path_16" data-name="Path 16" class="cls-2" d="M25.786,18.8H29.28V51.246c0,3.993-3,5.491-5.99,5.491s-5.99-1-5.99-5.491V18.8h3.494V50.248c0,2.5,1,3.494,2.5,3.494,2,0,2.5-1,2.5-3.494Z" transform="translate(69.057 75.044)"/>
        </g>
        <g id="Group_15" data-name="Group 15" class="cls-1">
          <path id="Path_17" data-name="Path 17" class="cls-2" d="M21.3,18.8h5.99c4.493,0,5.99,2.5,5.99,5.99V50.248c0,3.494-1,5.99-5.99,5.99H21.3Zm5.491,34.443c2.5,0,3-.5,3-3V24.291c0-2-.5-3-3-3h-2V52.744h2Z" transform="translate(85.023 75.044)"/>
        </g>
        <g id="Group_16" data-name="Group 16" class="cls-1">
          <rect id="Rectangle_19" data-name="Rectangle 19" class="cls-2" width="3.494" height="37.438" transform="translate(126.29 93.844)"/>
        </g>
        <g id="Group_17" data-name="Group 17" class="cls-1">
          <path id="Path_18" data-name="Path 18" class="cls-2" d="M27.6,25.189c0-3.494,1.5-6.489,5.99-6.489s5.99,2.5,5.99,6.489V50.647c0,3.494-1.5,6.489-5.99,6.489s-5.99-2.5-5.99-6.489Zm3,25.458c0,2,.5,3.494,2.5,3.494s2.5-1.5,2.5-3.494V25.189c0-2-.5-3.494-2.5-3.494s-2.5,1.5-2.5,3.494Z" transform="translate(110.171 74.645)"/>
        </g>
      </g>
    </g>
  </g>
</svg>
