<svg xmlns="http://www.w3.org/2000/svg" viewBox="-13124 -16116 45 44.9">
  <path id="Path_125" data-name="Path 125" d="M22.4,0a22.4,22.4,0,0,0-9.9,42.5,20.6,20.6,0,0,1,0-4.3,20.481,20.481,0,0,1,.5-2.4c.6-2.8,1.3-5.7,2-8.5.1-.3.1-.6.2-.9a2.556,2.556,0,0,0,0-1.5,7.256,7.256,0,0,1,.3-5.6,3.757,3.757,0,0,1,2.1-2,2.8,2.8,0,0,1,3.9,2.5,10.88,10.88,0,0,1-.6,3.6c-.4,1.3-.8,2.6-1.1,4a3.011,3.011,0,0,0,2,3.7,3.954,3.954,0,0,0,3-.3,7.415,7.415,0,0,0,3.3-3.7,13.879,13.879,0,0,0,1.2-5.7,11.5,11.5,0,0,0-.2-3.2,6.756,6.756,0,0,0-4.6-4.8,10.356,10.356,0,0,0-8.1.5,9.059,9.059,0,0,0-5.1,7.5,8.173,8.173,0,0,0,.1,2.7,5.119,5.119,0,0,0,1,2.1,1.4,1.4,0,0,1,.3,1.5,5.732,5.732,0,0,1-.4,1.4c-.3.7-.6.8-1.2.5a6.247,6.247,0,0,1-3-3,10.821,10.821,0,0,1,0-9.3,13.012,13.012,0,0,1,8.6-7.4,15.115,15.115,0,0,1,7.6-.4,12.265,12.265,0,0,1,9.2,7,8.931,8.931,0,0,1,.9,4.4,15.711,15.711,0,0,1-2.1,8.6,10.04,10.04,0,0,1-4.7,4.4,9.272,9.272,0,0,1-5.7.7,5.8,5.8,0,0,1-3-1.8c-.1-.1-.2-.3-.3-.3-.2,0-.1.3-.2.4-.6,2.1-1,4.2-1.7,6.2a21.752,21.752,0,0,1-2.4,4.2,23.122,23.122,0,0,0,8.3,1.6A22.363,22.363,0,0,0,45,22.5,22.62,22.62,0,0,0,22.4,0Z" transform="translate(-13124 -16116)"/>
</svg>
