<svg xmlns="http://www.w3.org/2000/svg" viewBox="-13043 -16116 44.7 44.7">
  <g id="Group_68" data-name="Group 68" transform="translate(-13043.1 -16116)">
    <path id="Path_126" data-name="Path 126" d="M20.6,0h3.8A24.51,24.51,0,0,1,32,2.1a22.98,22.98,0,0,1,7.9,6.3,22.053,22.053,0,0,1,4.4,9.1c.2,1,.4,2.1.5,3.1v3.6a.367.367,0,0,1-.1.3A20.074,20.074,0,0,1,42.6,32,22.441,22.441,0,0,1,27.2,44.2c-1,.2-2,.4-3,.5H20.3a24.511,24.511,0,0,1-6.6-1.6,21.3,21.3,0,0,1-8.5-6.3A22.368,22.368,0,0,1,.6,27.4a30.618,30.618,0,0,1-.5-3.2V20.6a.367.367,0,0,1,.1-.3,20.05,20.05,0,0,1,2.1-7.6A24.079,24.079,0,0,1,8,5.3,21.8,21.8,0,0,1,17.6.5,23.422,23.422,0,0,1,20.6,0Zm.8,32.2c3.8,0,7.3,0,10.8-.3a2.016,2.016,0,0,0,1.1-.3,5.3,5.3,0,0,0,2.1-2.1,5.918,5.918,0,0,0,.7-2.9c.1-1.7.2-3.4.2-5,0-1.4-.1-2.8-.2-4.1a7.4,7.4,0,0,0-.8-2.9,3.237,3.237,0,0,0-2.4-1.7c-2.6-.2-5.2-.3-7.8-.4-4,0-8-.1-12,.3a5.263,5.263,0,0,0-1.8.4,4.345,4.345,0,0,0-1.9,2.3,7.6,7.6,0,0,0-.6,2.6c-.1,1.6-.2,3.3-.2,4.9,0,1.3.1,2.6.2,4a6.683,6.683,0,0,0,1,3.1A3.657,3.657,0,0,0,12.7,32c1.3,0,2.5.2,3.8.2Z"/>
    <path id="Path_127" data-name="Path 127" d="M19.5,22.4V17.2c0-.1,0-.3.1-.3.1-.1.2,0,.4.1,2.2,1.5,4.4,3,6.7,4.4.3.2.7.4,1,.6.4.3.4.3,0,.6-1.2.8-2.4,1.6-3.5,2.4-1.3.9-2.7,1.8-4,2.7l-.1.1c-.2.2-.3.1-.3-.2V25.1A8.306,8.306,0,0,1,19.5,22.4Z"/>
  </g>
</svg>
